<?xml version="1.0" standalone="no"?>
<!DOCTYPE svg PUBLIC "-//W3C//DTD SVG 20010904//EN"
 "http://www.w3.org/TR/2001/REC-SVG-20010904/DTD/svg10.dtd">
<svg version="1.0" xmlns="http://www.w3.org/2000/svg"
 width="1024.000000pt" height="1024.000000pt" viewBox="0 0 1024.000000 1024.000000"
 preserveAspectRatio="xMidYMid meet">
<metadata>
Created by potrace 1.14, written by Peter Selinger 2001-2017
</metadata>
<g transform="translate(0.000000,1024.000000) scale(0.100000,-0.100000)"
fill="#000000" stroke="none">
<path d="M0 5120 l0 -5120 5120 0 5120 0 0 5120 0 5120 -5120 0 -5120 0 0
-5120z m5290 2194 c89 -26 170 -72 225 -127 40 -41 60 -74 94 -155 24 -57 45
-124 48 -150 2 -26 6 -57 9 -70 l5 -23 26 21 c50 39 73 16 73 -75 0 -109 -39
-236 -93 -301 -13 -16 -43 -81 -66 -144 -23 -63 -55 -145 -71 -181 -67 -147
-17 -275 136 -350 57 -28 76 -33 142 -32 89 0 163 25 245 80 140 96 294 123
478 84 l34 -7 -31 -17 c-48 -25 -104 -94 -140 -173 -19 -40 -34 -76 -34 -79 0
-3 22 21 48 54 152 189 385 275 627 230 53 -10 64 -16 124 -78 66 -67 112 -91
172 -91 23 1 23 1 4 12 -35 19 -96 81 -136 139 -21 31 -92 167 -157 301 -120
245 -120 245 -212 342 -54 56 -100 96 -112 96 -10 0 -32 -7 -48 -15 -34 -17
-38 -44 -15 -85 25 -43 19 -78 -17 -100 -78 -47 -277 -53 -364 -9 -76 38 -89
69 -89 214 0 67 6 143 13 172 13 51 15 52 75 76 129 51 353 82 540 75 93 -3
109 -7 180 -40 268 -128 709 -545 995 -940 88 -123 116 -179 116 -238 -1 -123
-107 -228 -409 -403 -71 -41 -170 -100 -219 -131 -128 -81 -329 -181 -434
-216 -79 -26 -104 -30 -208 -31 -66 0 -140 -4 -166 -8 l-48 -8 0 38 c0 57 -19
138 -47 196 -25 54 -116 163 -136 163 -5 0 -3 -8 6 -18 27 -29 67 -126 82
-199 19 -87 19 -288 0 -376 -25 -118 -72 -191 -234 -360 -219 -230 -285 -363
-313 -636 -2 -17 -28 30 -83 148 -44 94 -81 168 -83 163 -4 -14 83 -277 169
-510 44 -118 77 -217 74 -222 -2 -4 -33 -11 -67 -14 -96 -11 -311 -70 -420
-114 -157 -65 -297 -147 -430 -254 l-28 -22 -27 22 c-134 107 -274 189 -431
254 -109 44 -324 103 -420 114 -34 3 -65 10 -67 14 -3 5 30 104 74 222 86 233
173 496 169 510 -2 5 -39 -69 -83 -163 -55 -118 -81 -165 -83 -148 -17 163
-52 281 -123 404 -32 57 -84 120 -190 232 -162 169 -209 242 -234 360 -19 88
-19 289 0 376 15 73 55 170 82 199 9 10 11 18 6 18 -20 0 -111 -109 -136 -163
-28 -58 -47 -139 -47 -196 l0 -38 -47 8 c-27 4 -101 8 -167 8 -104 1 -129 5
-208 31 -105 35 -306 135 -434 216 -49 31 -147 90 -219 131 -239 139 -345 226
-390 320 -42 87 -21 158 97 321 286 395 727 812 995 940 71 33 87 37 180 40
187 7 411 -24 540 -75 60 -24 62 -25 75 -76 7 -29 13 -105 13 -172 0 -145 -13
-176 -89 -214 -87 -44 -286 -38 -364 9 -36 22 -42 57 -17 100 23 41 19 68 -15
85 -16 8 -38 15 -48 15 -12 0 -58 -40 -112 -96 -92 -97 -92 -97 -212 -342 -65
-134 -136 -270 -157 -301 -40 -58 -101 -120 -136 -139 -19 -11 -19 -11 4 -12
60 0 106 24 172 91 60 62 71 68 124 78 242 45 475 -41 627 -230 26 -33 48 -57
48 -54 0 3 -15 39 -34 79 -36 79 -92 148 -140 173 l-31 17 34 7 c184 39 338
12 478 -84 82 -55 156 -80 245 -80 66 -1 85 4 142 32 153 75 203 203 136 350
-16 36 -48 118 -71 181 -23 63 -53 128 -66 144 -54 65 -93 192 -93 301 0 91
23 114 73 75 l26 -21 5 23 c3 13 7 44 9 70 3 26 24 93 48 150 34 81 54 114 94
155 72 71 192 128 310 147 54 8 199 -3 255 -20z"/>
<path d="M5153 5054 c-8 -21 13 -42 28 -27 13 13 5 43 -11 43 -6 0 -13 -7 -17
-16z"/>
<path d="M4679 5050 c-46 -14 -77 -40 -93 -81 -32 -80 -12 -169 47 -213 23
-17 43 -21 100 -21 106 0 107 1 107 90 l0 75 -55 0 c-42 0 -55 -3 -55 -15 0
-10 11 -15 35 -15 l35 0 0 -56 0 -56 -65 4 c-89 5 -117 32 -123 116 -8 111 42
159 155 149 49 -5 63 -3 63 7 0 22 -97 33 -151 16z"/>
<path d="M4952 4972 c-13 -4 -23 -10 -23 -14 1 -5 1 -13 1 -18 0 -7 6 -7 19 0
26 14 74 13 89 -2 7 -7 12 -22 12 -34 0 -19 -7 -23 -56 -29 -94 -11 -131 -69
-79 -120 28 -29 66 -32 109 -10 35 18 36 18 36 0 0 -8 7 -15 16 -15 14 0 15
14 12 105 -2 79 -7 108 -19 120 -18 19 -82 28 -117 17z m98 -147 c0 -50 -74
-87 -108 -53 -33 33 7 78 70 78 34 0 38 -3 38 -25z"/>
<path d="M5150 4855 c0 -118 1 -125 20 -125 19 0 20 7 20 125 0 118 -1 125
-20 125 -19 0 -20 -7 -20 -125z"/>
<path d="M5260 4855 c0 -118 1 -125 20 -125 19 0 20 7 20 90 0 101 15 130 68
130 50 0 62 -25 62 -128 0 -75 3 -92 15 -92 12 0 15 18 15 103 0 109 -3 118
-37 136 -29 15 -62 14 -97 -4 -35 -18 -36 -18 -36 0 0 8 -7 15 -15 15 -13 0
-15 -21 -15 -125z"/>
<path d="M5552 4970 c-25 -11 -41 -45 -34 -73 3 -12 30 -31 69 -48 45 -21 63
-35 63 -48 0 -33 -26 -44 -86 -37 -43 5 -55 3 -52 -6 6 -19 69 -32 112 -24 44
8 71 44 62 81 -5 20 -22 33 -71 55 -48 22 -65 34 -65 49 0 24 27 34 82 29 49
-4 63 16 17 26 -41 8 -69 7 -97 -4z"/>
</g>
</svg>
